<svg width="136" height="100" viewBox="0 0 136 100" fill="none" xmlns="http://www.w3.org/2000/svg">
<circle cx="26.5" cy="58.5" r="26.5" fill="#A7BCFB"/>
<path d="M36 48.8332C36 47.1763 37.3431 45.8332 39 45.8332H57.5935C58.3958 45.8332 59.1204 45.3538 59.4342 44.6155L76.1075 5.38422C76.4213 4.64589 77.1459 4.1665 77.9481 4.1665H89.3164C91.71 4.1665 93.5678 6.25469 93.2892 8.63207L90.1025 35.8253C89.998 36.7168 90.6947 37.4998 91.5923 37.4998H128.122C130.032 37.4998 131.456 39.2609 131.056 41.1284L119.841 93.4618C119.545 94.845 118.323 95.8332 116.908 95.8332H39C37.3431 95.8332 36 94.49 36 92.8332V48.8332Z" stroke="#14142B" stroke-width="8"/>
<path d="M61 41.6665V95.8332" stroke="#14142B" stroke-width="8"/>
</svg>
